HIERARCHY
ROOT Hips
{
 OFFSET 0.000000 0.000000 0.000000
 CHANNELS 6 Xposition Yposition Zposition Yrotation Xrotation Zrotation
 JOINT Chest
 {
  OFFSET 0.000000 9.585900 0.002600
  CHANNELS 3 Yrotation Xrotation Zrotation
  JOINT Chest2
  {
   OFFSET 0.000000 9.601200 -0.005300
   CHANNELS 3 Yrotation Xrotation Zrotation
   JOINT Chest3
   {
    OFFSET 0.000000 9.561800 0.000000
    CHANNELS 3 Yrotation Xrotation Zrotation
    JOINT Chest4
    {
     OFFSET 0.000000 9.552100 0.000000
     CHANNELS 3 Yrotation Xrotation Zrotation
     JOINT Neck
     {
      OFFSET 0.000000 14.453000 0.000000
      CHANNELS 3 Yrotation Xrotation Zrotation
      JOINT Head
      {
       OFFSET 0.000000 8.936500 -0.011300
       CHANNELS 3 Yrotation Xrotation Zrotation
       End Site
       {
        OFFSET 0.000000 17.073600 -0.006000
       }
      }
     }
     JOINT RightCollar
     {
      OFFSET -2.921100 9.558500 0.000000
      CHANNELS 3 Yrotation Xrotation Zrotation
      JOINT RightShoulder
      {
       OFFSET -13.519700 0.000000 0.000000
       CHANNELS 3 Yrotation Xrotation Zrotation
       JOINT RightElbow
       {
        OFFSET 0.000000 -29.696600 0.000000
        CHANNELS 3 Yrotation Xrotation Zrotation
        JOINT RightWrist
        {
         OFFSET 0.000000 -24.004700 0.000000
         CHANNELS 3 Yrotation Xrotation Zrotation
         End Site
         {
          OFFSET 0.000000 -17.728500 0.000000
         }
        }
       }
      }
     }
     JOINT LeftCollar
     {
      OFFSET 2.921100 9.558500 0.000000
      CHANNELS 3 Yrotation Xrotation Zrotation
      JOINT LeftShoulder
      {
       OFFSET 13.519700 0.000000 0.000000
       CHANNELS 3 Yrotation Xrotation Zrotation
       JOINT LeftElbow
       {
        OFFSET 0.000000 -29.696600 0.000000
        CHANNELS 3 Yrotation Xrotation Zrotation
        JOINT LeftWrist
        {
         OFFSET 0.000000 -24.004700 0.000000
         CHANNELS 3 Yrotation Xrotation Zrotation
         End Site
         {
          OFFSET 0.000000 -17.728500 0.000000
         }
        }
       }
      }
     }
    }
   }
  }
 }
 JOINT RightHip
 {
  OFFSET -7.771700 -0.012900 -0.001300
  CHANNELS 3 Yrotation Xrotation Zrotation
  JOINT RightKnee
  {
   OFFSET 0.000000 -40.869800 0.001200
   CHANNELS 3 Yrotation Xrotation Zrotation
   JOINT RightAnkle
   {
    OFFSET 0.000000 -39.717900 0.002100
    CHANNELS 3 Yrotation Xrotation Zrotation
    JOINT RightToe
    {
     OFFSET 0.000000 -4.965400 11.033500
     CHANNELS 3 Yrotation Xrotation Zrotation
     End Site
     {
      OFFSET 0.000000 -1.423100 5.872300
     }
    }
   }
  }
 }
 JOINT LeftHip
 {
  OFFSET 7.771700 -0.012900 -0.001300
  CHANNELS 3 Yrotation Xrotation Zrotation
  JOINT LeftKnee
  {
   OFFSET 0.000000 -40.869800 0.001200
   CHANNELS 3 Yrotation Xrotation Zrotation
   JOINT LeftAnkle
   {
    OFFSET 0.000000 -39.717900 0.002100
    CHANNELS 3 Yrotation Xrotation Zrotation
    JOINT LeftToe
    {
     OFFSET 0.000000 -4.965400 11.033500
     CHANNELS 3 Yrotation Xrotation Zrotation
     End Site
     {
      OFFSET 0.000000 -1.423100 5.872300
     }
    }
   }
  }
 }
}
MOTION
Frames: 5
Frame Time: 0.008333
0.000000 85.388000 0.000000 0.000000 -5.767877 0.000000 0.000000 11.653817 0.000000 0.000000 -5.885947 0.000000 0.000000 -0.000000 0.000000 0.000000 -0.000000 0.000000 0.000000 12.528835 0.000000 0.000000 0.711642 0.000000 0.000000 -0.000000 0.000000 0.000000 0.000000 -90.000000 0.000000 -2.309062 0.000000 0.000000 2.309062 0.000000 0.000000 -0.000000 0.000000 0.000000 -0.000000 90.000000 0.000000 -2.309062 0.000000 0.000000 2.309062 0.000000 0.000000 8.520406 0.000000 0.000000 1.905762 0.000000 -0.000000 -4.658285 0.000000 0.000000 -0.000000 0.000000 0.000000 8.520406 0.000000 0.000000 1.905762 0.000000 -0.000000 -4.658285 0.000000 0.000000 -0.000000 0.000000
-23.658572 52.897568 5.379915 -177.800907 -16.013689 -2.069308 0.406730 15.563373 0.597977 0.032185 1.478534 0.064440 0.055101 2.483288 0.108854 0.374368 13.849127 0.648807 -0.086468 17.333461 -2.546029 0.477532 -7.489973 -2.649819 -0.106822 -0.278469 2.823414 1.851850 -9.591000 -5.998921 -121.836539 -80.097789 151.079011 -5.783193 -20.082264 -11.944666 -5.613653 -0.922685 0.437642 3.495840 -7.678279 9.596583 85.738743 -64.781047 -123.750883 1.903408 -15.009143 5.647584 2.827807 -62.598587 10.293265 -174.237098 86.029970 -175.777838 -12.278159 -22.740092 13.058490 0.017613 -0.078989 0.022690 5.226865 -60.973721 -4.067948 120.465844 77.976825 118.619385 -6.658279 -19.636389 -1.373115 0.028334 0.162940 0.014939
-23.658596 52.898240 5.378175 -177.796031 -16.018607 -2.071076 0.411503 15.571693 0.594127 0.037131 1.482742 0.062361 0.051235 2.482608 0.110858 0.377625 13.854474 0.647740 -0.085476 17.330112 -2.575150 0.475347 -7.497060 -2.647080 -0.117664 -0.293429 2.825174 1.847548 -9.582459 -6.000097 -121.836644 -80.097527 151.080162 -5.777905 -20.095575 -11.953787 -5.622135 -0.939994 0.454744 3.491812 -7.683654 9.603823 85.760017 -64.777101 -123.764260 1.897822 -15.016817 5.651955 2.823891 -62.596105 10.307684 -174.016065 86.029112 -175.546117 -12.350553 -22.710570 13.056446 0.013740 -0.082879 0.032006 5.215978 -60.966177 -4.060759 120.463445 77.975995 118.614468 -6.660458 -19.641251 -1.373120 0.028937 0.165819 0.014873
-23.659268 52.898808 5.376801 -177.785527 -16.020712 -2.069975 0.420100 15.588603 0.588892 0.022944 1.470954 0.066760 0.056431 2.487518 0.108185 0.380885 13.859624 0.645555 -0.087195 17.327560 -2.599968 0.475496 -7.505870 -2.647989 -0.127990 -0.306726 2.829677 1.844731 -9.570822 -6.006876 -121.876764 -80.101600 151.117230 -5.780271 -20.119898 -11.962003 -5.632091 -0.953820 0.467553 3.487979 -7.708452 9.616131 85.759729 -64.769847 -123.757926 1.872792 -15.028004 5.649171 2.830268 -62.597772 10.311999 -173.732932 86.028680 -175.253481 -12.439524 -22.677795 13.061932 0.009555 -0.086590 0.040572 5.203684 -60.960263 -4.060548 120.456111 77.975214 118.603464 -6.663497 -19.648267 -1.373749 0.028853 0.170785 0.014732
-23.659358 52.899255 5.375958 -177.783294 -16.019609 -2.069304 0.426874 15.597175 0.587110 0.024935 1.472760 0.066649 0.056320 2.490044 0.107997 0.380522 13.866051 0.643505 -0.090765 17.312476 -2.607864 0.500623 -7.501701 -2.749292 -0.135756 -0.326888 2.830689 1.842256 -9.566483 -6.005443 -121.892472 -80.099988 151.132475 -5.765027 -20.121493 -11.977150 -5.633531 -0.984823 0.480734 3.482721 -7.711364 9.620040 85.773755 -64.768948 -123.771035 1.881793 -15.019517 5.650992 2.846166 -62.601997 10.313659 -173.601596 86.026584 -175.122215 -12.485468 -22.650480 13.063768 0.009849 -0.089210 0.046777 5.196200 -60.958786 -4.056424 120.449294 77.975743 118.593986 -6.664811 -19.650565 -1.372918 0.032086 0.171911 0.012780
